<svg xmlns="http://www.w3.org/2000/svg" width="49" height="48" fill="none"><path fill="#442781" d="M1.984 29.29a17.209 17.209 0 0 1 17.21-17.21v17.21H1.985Z" class="ccustom"/><path fill="#61459C" d="M1.984 29.29a17.21 17.21 0 0 0 17.21 17.21V29.29H1.985Z" class="ccompli1"/><path fill="#A992DB" d="M36.404 29.29a17.212 17.212 0 0 1-10.624 15.9 17.209 17.209 0 0 1-6.585 1.31V29.29h17.21Z" class="ccompli2"/><path fill="#FF7917" d="M47.016 14.422c0 7.137-5.786 12.922-12.922 12.922H21.171V14.422c0-7.137 5.785-12.922 12.921-12.922 7.137 0 12.923 5.785 12.923 12.922Z" class="ccustom"/></svg>