<svg xmlns="http://www.w3.org/2000/svg" width="40" height="40" fill="none"><path fill="#775732" d="M39.945 21.5H32.8c-6.24 0-11.3 5.059-11.3 11.3v7.144c9.85-.73 17.715-8.594 18.445-18.444ZM18.5 39.944V32.8c0-6.241-5.059-11.3-11.3-11.3H.056C.786 31.35 8.65 39.214 18.5 39.944ZM39.945 18.5C39.215 8.65 31.35.786 21.5.055V7.2c0 6.24 5.06 11.3 11.3 11.3h7.145ZM18.5.055C8.65.785.786 8.65.056 18.5H7.2c6.241 0 11.3-5.06 11.3-11.3V.055Z" class="ccustom"/><path fill="#CA9352" d="M13.583 20A14.362 14.362 0 0 0 20 13.582 14.362 14.362 0 0 0 26.418 20 14.361 14.361 0 0 0 20 26.417 14.361 14.361 0 0 0 13.583 20Z" class="ccustom"/></svg>